<svg class="main-svg" xmlns="http://www.w3.org/2000/svg" xmlns:xlink="http://www.w3.org/1999/xlink" width="5000" height="3400" style="" viewBox="0 0 5000 3400"><rect x="0" y="0" width="5000" height="3400" style="fill: rgb(255, 255, 255); fill-opacity: 1;"/><defs id="defs-aa9880"><g class="clips"><clipPath id="clipaa9880xyplot" class="plotclip"><rect width="4580" height="3191"/></clipPath><clipPath class="axesclip" id="clipaa9880x"><rect x="400" y="0" width="4580" height="3400"/></clipPath><clipPath class="axesclip" id="clipaa9880y"><rect x="0" y="70" width="5000" height="3191"/></clipPath><clipPath class="axesclip" id="clipaa9880xy"><rect x="400" y="70" width="4580" height="3191"/></clipPath></g><g class="gradients"/><g class="patterns"/></defs><g class="bglayer"/><g class="layer-below"><g class="imagelayer"/><g class="shapelayer"/></g><g class="cartesianlayer"><g class="subplot xy"><g class="layer-subplot"><g class="shapelayer"/><g class="imagelayer"/></g><g class="minor-gridlayer"><g class="x"/><g class="y"/></g><g class="gridlayer"><g class="x"/><g class="y"/></g><g class="zerolinelayer"/><g class="layer-between"><g class="shapelayer"/><g class="imagelayer"/></g><path class="xlines-below"/><path class="ylines-below"/><g class="overlines-below"/><g class="xaxislayer-below"/><g class="yaxislayer-below"/><g class="overaxes-below"/><g class="plot" transform="translate(400,70)" clip-path="url(#clipaa9880xyplot)"><g class="scatterlayer mlayer"><g class="trace scatter trace564ec7" style="stroke-miterlimit: 2; opacity: 1;"><g class="fills"/><g class="errorbars"/><g class="lines"><path class="js-line" d="M-3358.67,3031.45L0,3031.45L305.33,2970.35L610.67,2725.93L916,2603.72L1221.33,2848.14L1526.67,2420.41L1832,2664.82L2137.33,2420.41L2442.67,1992.68L2748,2114.89L3053.33,1809.36L3358.67,1442.74L3664,1076.11L3969.33,953.91L4274.67,1076.11L4580,1626.05L4885.33,1931.57" style="vector-effect: none; fill: none; stroke: rgb(230, 159, 0); stroke-opacity: 1; stroke-width: 10px; opacity: 1;"/></g><g class="points"/><g class="text"/></g><g class="trace scatter tracedf49c6" style="stroke-miterlimit: 2; opacity: 1;"><g class="fills"/><g class="errorbars"/><g class="lines"><path class="js-line" d="M-6717.33,3031.45L-6412,2787.03L-5801.33,3031.45L-4274.67,3031.45L-3969.33,2970.35L-3664,3031.45L-3358.67,3031.45L-2442.67,3031.45L-2137.33,2970.35L-1832,2787.03L-1221.33,2848.14L-916,2909.24L-610.67,3031.45L0,3031.45L305.33,2909.24L610.67,2970.35L916,2848.14L1221.33,2725.93L1526.67,2542.62L1832,2175.99L2137.33,2420.41L2442.67,2114.89L2748,2298.2L3053.33,1503.84L3358.67,2114.89L3664,1809.36L3969.33,1564.95L4274.67,2114.89L4580,2237.09L4885.33,2481.51" style="vector-effect: none; fill: none; stroke: rgb(86, 180, 233); stroke-opacity: 1; stroke-width: 10px; opacity: 1;"/></g><g class="points"/><g class="text"/></g><g class="trace scatter trace5b54c0" style="stroke-miterlimit: 2; opacity: 1;"><g class="fills"/><g class="errorbars"/><g class="lines"><path class="js-line" d="M0,3031.45L610.67,3031.45L1221.33,2970.35L1526.67,2970.35L1832,2848.14L2137.33,2970.35L2442.67,2909.24L2748,2909.24L3053.33,2420.41L3358.67,1931.57L3664,1748.26L3969.33,1748.26L4274.67,1198.32L4580,892.8L4885.33,1626.05" style="vector-effect: none; fill: none; stroke: rgb(0, 158, 115); stroke-opacity: 1; stroke-width: 10px; opacity: 1;"/></g><g class="points"/><g class="text"/></g><g class="trace scatter trace9cabc6" style="stroke-miterlimit: 2; opacity: 1;"><g class="fills"/><g class="errorbars"/><g class="lines"><path class="js-line" d="M1832,2970.35L2137.33,2909.24L2442.67,2970.35L2748,2848.14L3053.33,2787.03L3358.67,2603.72L3664,2114.89L3969.33,1564.95L4274.67,1076.11L4580,159.55L4885.33,1442.74" style="vector-effect: none; fill: none; stroke: rgb(240, 228, 66); stroke-opacity: 1; stroke-width: 10px; opacity: 1;"/></g><g class="points"/><g class="text"/></g><g class="trace scatter trace16d8df" style="stroke-miterlimit: 2; opacity: 1;"><g class="fills"/><g class="errorbars"/><g class="lines"><path class="js-line" d="M610.67,3031.45L2442.67,2970.35L2748,2848.14L3053.33,2970.35L3358.67,2664.82L3969.33,2175.99L4274.67,1015.01L4580,342.86L4885.33,1503.84" style="vector-effect: none; fill: none; stroke: rgb(213, 94, 0); stroke-opacity: 1; stroke-width: 10px; opacity: 1;"/></g><g class="points"/><g class="text"/></g><g class="trace scatter trace75ccbf" style="stroke-miterlimit: 2; opacity: 1;"><g class="fills"/><g class="errorbars"/><g class="lines"><path class="js-line" d="M-610.67,2970.35L1832,3031.45L2137.33,3031.45L2748,3031.45L3053.33,2848.14L3664,2481.51L3969.33,1748.26L4274.67,1381.64L4580,953.91L4885.33,1259.43" style="vector-effect: none; fill: none; stroke: rgb(0, 114, 178); stroke-opacity: 1; stroke-width: 10px; opacity: 1;"/></g><g class="points"/><g class="text"/></g><g class="trace scatter trace56e078" style="stroke-miterlimit: 2; opacity: 1;"><g class="fills"/><g class="errorbars"/><g class="lines"><path class="js-line" d="M1221.33,3031.45L2137.33,2970.35L2442.67,2970.35L2748,3031.45L3053.33,2970.35L3358.67,2725.93L3664,2542.62L3969.33,1809.36L4274.67,1931.57L4580,403.97L4885.33,2114.89" style="vector-effect: none; fill: none; stroke: rgb(204, 121, 167); stroke-opacity: 1; stroke-width: 10px; opacity: 1;"/></g><g class="points"/><g class="text"/></g><g class="trace scatter trace152f86" style="stroke-miterlimit: 2; opacity: 1;"><g class="fills"/><g class="errorbars"/><g class="lines"><path class="js-line" d="M3664,2970.35L3969.33,1259.43L4274.67,1015.01L4580,1442.74L4885.33,2298.2" style="vector-effect: none; fill: none; stroke: rgb(255, 0, 0); stroke-opacity: 1; stroke-width: 10px; opacity: 1;"/></g><g class="points"/><g class="text"/></g><g class="trace scatter tracef001bc" style="stroke-miterlimit: 2; opacity: 1;"><g class="fills"/><g class="errorbars"/><g class="lines"><path class="js-line" d="M1832,2970.35L2137.33,3031.45L2442.67,3031.45L2748,3031.45L3053.33,2970.35L3358.67,2787.03L3664,2664.82L4274.67,1931.57L4580,2298.2L4885.33,2542.62" style="vector-effect: none; fill: none; stroke: rgb(0, 255, 0); stroke-opacity: 1; stroke-width: 10px; opacity: 1;"/></g><g class="points"/><g class="text"/></g><g class="trace scatter trace1e2a8e" style="stroke-miterlimit: 2; opacity: 1;"><g class="fills"/><g class="errorbars"/><g class="lines"><path class="js-line" d="M2748,3031.45L3053.33,2970.35L3358.67,2664.82L3664,2481.51L3969.33,2420.41L4274.67,2542.62L4580,1931.57L4885.33,2481.51" style="vector-effect: none; fill: none; stroke: rgb(0, 0, 255); stroke-opacity: 1; stroke-width: 10px; opacity: 1;"/></g><g class="points"/><g class="text"/></g></g></g><g class="overplot"/><path class="xlines-above crisp" d="M399,3261.5H4980" style="fill: none; stroke-width: 1px; stroke: rgb(36, 36, 36); stroke-opacity: 1;"/><path class="ylines-above crisp" d="M399.5,70V3261" style="fill: none; stroke-width: 1px; stroke: rgb(36, 36, 36); stroke-opacity: 1;"/><g class="overlines-above"/><g class="xaxislayer-above"><path class="xtick ticks crisp" d="M0,3262v5" transform="translate(400,0)" style="stroke: rgb(68, 68, 68); stroke-opacity: 1; stroke-width: 1px;"/><path class="xtick ticks crisp" d="M0,3262v5" transform="translate(1010.67,0)" style="stroke: rgb(68, 68, 68); stroke-opacity: 1; stroke-width: 1px;"/><path class="xtick ticks crisp" d="M0,3262v5" transform="translate(1621.33,0)" style="stroke: rgb(68, 68, 68); stroke-opacity: 1; stroke-width: 1px;"/><path class="xtick ticks crisp" d="M0,3262v5" transform="translate(2232,0)" style="stroke: rgb(68, 68, 68); stroke-opacity: 1; stroke-width: 1px;"/><path class="xtick ticks crisp" d="M0,3262v5" transform="translate(2842.67,0)" style="stroke: rgb(68, 68, 68); stroke-opacity: 1; stroke-width: 1px;"/><path class="xtick ticks crisp" d="M0,3262v5" transform="translate(3453.33,0)" style="stroke: rgb(68, 68, 68); stroke-opacity: 1; stroke-width: 1px;"/><path class="xtick ticks crisp" d="M0,3262v5" transform="translate(4064,0)" style="stroke: rgb(68, 68, 68); stroke-opacity: 1; stroke-width: 1px;"/><path class="xtick ticks crisp" d="M0,3262v5" transform="translate(4674.67,0)" style="stroke: rgb(68, 68, 68); stroke-opacity: 1; stroke-width: 1px;"/><g class="xtick"><text text-anchor="middle" x="0" y="3370.2" transform="translate(400,0)" style="font-family: 'Open Sans', verdana, arial, sans-serif; font-size: 86px; fill: rgb(36, 36, 36); fill-opacity: 1; white-space: pre; opacity: 1;">2008</text></g><g class="xtick"><text text-anchor="middle" x="0" y="3370.2" style="font-family: 'Open Sans', verdana, arial, sans-serif; font-size: 86px; fill: rgb(36, 36, 36); fill-opacity: 1; white-space: pre; opacity: 1;" transform="translate(1010.67,0)">2010</text></g><g class="xtick"><text text-anchor="middle" x="0" y="3370.2" style="font-family: 'Open Sans', verdana, arial, sans-serif; font-size: 86px; fill: rgb(36, 36, 36); fill-opacity: 1; white-space: pre; opacity: 1;" transform="translate(1621.33,0)">2012</text></g><g class="xtick"><text text-anchor="middle" x="0" y="3370.2" style="font-family: 'Open Sans', verdana, arial, sans-serif; font-size: 86px; fill: rgb(36, 36, 36); fill-opacity: 1; white-space: pre; opacity: 1;" transform="translate(2232,0)">2014</text></g><g class="xtick"><text text-anchor="middle" x="0" y="3370.2" style="font-family: 'Open Sans', verdana, arial, sans-serif; font-size: 86px; fill: rgb(36, 36, 36); fill-opacity: 1; white-space: pre; opacity: 1;" transform="translate(2842.67,0)">2016</text></g><g class="xtick"><text text-anchor="middle" x="0" y="3370.2" style="font-family: 'Open Sans', verdana, arial, sans-serif; font-size: 86px; fill: rgb(36, 36, 36); fill-opacity: 1; white-space: pre; opacity: 1;" transform="translate(3453.33,0)">2018</text></g><g class="xtick"><text text-anchor="middle" x="0" y="3370.2" style="font-family: 'Open Sans', verdana, arial, sans-serif; font-size: 86px; fill: rgb(36, 36, 36); fill-opacity: 1; white-space: pre; opacity: 1;" transform="translate(4064,0)">2020</text></g><g class="xtick"><text text-anchor="middle" x="0" y="3370.2" style="font-family: 'Open Sans', verdana, arial, sans-serif; font-size: 86px; fill: rgb(36, 36, 36); fill-opacity: 1; white-space: pre; opacity: 1;" transform="translate(4674.67,0)">2022</text></g></g><g class="yaxislayer-above"><path class="ytick ticks crisp" d="M399,0h-5" transform="translate(0,3162.55)" style="stroke: rgb(68, 68, 68); stroke-opacity: 1; stroke-width: 1px;"/><path class="ytick ticks crisp" d="M399,0h-5" transform="translate(0,2551.51)" style="stroke: rgb(68, 68, 68); stroke-opacity: 1; stroke-width: 1px;"/><path class="ytick ticks crisp" d="M399,0h-5" transform="translate(0,1940.47)" style="stroke: rgb(68, 68, 68); stroke-opacity: 1; stroke-width: 1px;"/><path class="ytick ticks crisp" d="M399,0h-5" transform="translate(0,1329.43)" style="stroke: rgb(68, 68, 68); stroke-opacity: 1; stroke-width: 1px;"/><path class="ytick ticks crisp" d="M399,0h-5" transform="translate(0,718.38)" style="stroke: rgb(68, 68, 68); stroke-opacity: 1; stroke-width: 1px;"/><path class="ytick ticks crisp" d="M399,0h-5" transform="translate(0,107.34)" style="stroke: rgb(68, 68, 68); stroke-opacity: 1; stroke-width: 1px;"/><g class="ytick"><text text-anchor="end" x="376.8" y="30.099999999999998" transform="translate(0,3162.55)" style="font-family: 'Open Sans', verdana, arial, sans-serif; font-size: 86px; fill: rgb(36, 36, 36); fill-opacity: 1; white-space: pre; opacity: 1;">0</text></g><g class="ytick"><text text-anchor="end" x="376.8" y="30.099999999999998" style="font-family: 'Open Sans', verdana, arial, sans-serif; font-size: 86px; fill: rgb(36, 36, 36); fill-opacity: 1; white-space: pre; opacity: 1;" transform="translate(0,2551.51)">10</text></g><g class="ytick"><text text-anchor="end" x="376.8" y="30.099999999999998" style="font-family: 'Open Sans', verdana, arial, sans-serif; font-size: 86px; fill: rgb(36, 36, 36); fill-opacity: 1; white-space: pre; opacity: 1;" transform="translate(0,1940.47)">20</text></g><g class="ytick"><text text-anchor="end" x="376.8" y="30.099999999999998" style="font-family: 'Open Sans', verdana, arial, sans-serif; font-size: 86px; fill: rgb(36, 36, 36); fill-opacity: 1; white-space: pre; opacity: 1;" transform="translate(0,1329.43)">30</text></g><g class="ytick"><text text-anchor="end" x="376.8" y="30.099999999999998" style="font-family: 'Open Sans', verdana, arial, sans-serif; font-size: 86px; fill: rgb(36, 36, 36); fill-opacity: 1; white-space: pre; opacity: 1;" transform="translate(0,718.38)">40</text></g><g class="ytick"><text text-anchor="end" x="376.8" y="30.099999999999998" style="font-family: 'Open Sans', verdana, arial, sans-serif; font-size: 86px; fill: rgb(36, 36, 36); fill-opacity: 1; white-space: pre; opacity: 1;" transform="translate(0,107.34)">50</text></g></g><g class="overaxes-above"/></g></g><g class="polarlayer"/><g class="smithlayer"/><g class="ternarylayer"/><g class="geolayer"/><g class="funnelarealayer"/><g class="pielayer"/><g class="iciclelayer"/><g class="treemaplayer"/><g class="sunburstlayer"/><g class="glimages"/><defs id="topdefs-aa9880"><g class="clips"/><clipPath id="legendaa9880"><rect width="3213" height="1292" x="0" y="0"/></clipPath></defs><g class="layer-above"><g class="imagelayer"/><g class="shapelayer"/></g><g class="infolayer"><g class="legend" pointer-events="all" transform="translate(445.8,70)"><rect class="bg" shape-rendering="crispEdges" style="stroke: rgb(68, 68, 68); stroke-opacity: 1; fill: rgb(255, 255, 255); fill-opacity: 1; stroke-width: 0px;" width="3213" height="1292" x="0" y="0"/><g class="scrollbox" transform="" clip-path="url(#legendaa9880)"><text class="legendtitletext" text-anchor="start" x="2" y="133.9" style="font-family: 'Open Sans', verdana, arial, sans-serif; font-size: 103px; fill: rgb(36, 36, 36); fill-opacity: 1; white-space: pre;"><tspan style="font-weight:bold">Topic</tspan></text><g class="groups"><g class="traces" transform="translate(0,196.3)" style="opacity: 1;"><text class="legendtext" text-anchor="start" x="40" y="33.54" style="font-family: 'Open Sans', verdana, arial, sans-serif; font-size: 86px; fill: rgb(36, 36, 36); fill-opacity: 1; white-space: pre;">9: Plastic Ingestion by Marine Species</text><g class="layers" style="opacity: 1;"><g class="legendfill"/><g class="legendlines"><path class="js-line" d="M5,0h30" style="fill: none; stroke: rgb(230, 159, 0); stroke-opacity: 1; stroke-width: 10px;"/></g><g class="legendsymbols"><g class="legendpoints"/></g></g><rect class="legendtoggle" x="0" y="-57.4" width="3207.09375" height="114.8" style="fill: rgb(0, 0, 0); fill-opacity: 0;"/></g><g class="traces" transform="translate(0,311.09999999999997)" style="opacity: 1;"><text class="legendtext" text-anchor="start" x="40" y="33.54" style="font-family: 'Open Sans', verdana, arial, sans-serif; font-size: 86px; fill: rgb(36, 36, 36); fill-opacity: 1; white-space: pre;">11: Impacts of Marine Debris on Sea Turtles and Other Wildlife</text><g class="layers" style="opacity: 1;"><g class="legendfill"/><g class="legendlines"><path class="js-line" d="M5,0h30" style="fill: none; stroke: rgb(86, 180, 233); stroke-opacity: 1; stroke-width: 10px;"/></g><g class="legendsymbols"><g class="legendpoints"/></g></g><rect class="legendtoggle" x="0" y="-57.4" width="3207.09375" height="114.8" style="fill: rgb(0, 0, 0); fill-opacity: 0;"/></g><g class="traces" transform="translate(0,425.9)" style="opacity: 1;"><text class="legendtext" text-anchor="start" x="40" y="33.54" style="font-family: 'Open Sans', verdana, arial, sans-serif; font-size: 86px; fill: rgb(36, 36, 36); fill-opacity: 1; white-space: pre;">12: Adsorption of Pollutants by Microplastics</text><g class="layers" style="opacity: 1;"><g class="legendfill"/><g class="legendlines"><path class="js-line" d="M5,0h30" style="fill: none; stroke: rgb(0, 158, 115); stroke-opacity: 1; stroke-width: 10px;"/></g><g class="legendsymbols"><g class="legendpoints"/></g></g><rect class="legendtoggle" x="0" y="-57.4" width="3207.09375" height="114.8" style="fill: rgb(0, 0, 0); fill-opacity: 0;"/></g><g class="traces" transform="translate(0,540.6999999999999)" style="opacity: 1;"><text class="legendtext" text-anchor="start" x="40" y="33.54" style="font-family: 'Open Sans', verdana, arial, sans-serif; font-size: 86px; fill: rgb(36, 36, 36); fill-opacity: 1; white-space: pre;">13: Human Exposure to Microplastics</text><g class="layers" style="opacity: 1;"><g class="legendfill"/><g class="legendlines"><path class="js-line" d="M5,0h30" style="fill: none; stroke: rgb(240, 228, 66); stroke-opacity: 1; stroke-width: 10px;"/></g><g class="legendsymbols"><g class="legendpoints"/></g></g><rect class="legendtoggle" x="0" y="-57.4" width="3207.09375" height="114.8" style="fill: rgb(0, 0, 0); fill-opacity: 0;"/></g><g class="traces" transform="translate(0,655.5)" style="opacity: 1;"><text class="legendtext" text-anchor="start" x="40" y="33.54" style="font-family: 'Open Sans', verdana, arial, sans-serif; font-size: 86px; fill: rgb(36, 36, 36); fill-opacity: 1; white-space: pre;">16: Dynamics of Microplastic Transport and Settling</text><g class="layers" style="opacity: 1;"><g class="legendfill"/><g class="legendlines"><path class="js-line" d="M5,0h30" style="fill: none; stroke: rgb(213, 94, 0); stroke-opacity: 1; stroke-width: 10px;"/></g><g class="legendsymbols"><g class="legendpoints"/></g></g><rect class="legendtoggle" x="0" y="-57.4" width="3207.09375" height="114.8" style="fill: rgb(0, 0, 0); fill-opacity: 0;"/></g><g class="traces" transform="translate(0,770.3)" style="opacity: 1;"><text class="legendtext" text-anchor="start" x="40" y="33.54" style="font-family: 'Open Sans', verdana, arial, sans-serif; font-size: 86px; fill: rgb(36, 36, 36); fill-opacity: 1; white-space: pre;">17: Microplastics in Wastewater Treatment</text><g class="layers" style="opacity: 1;"><g class="legendfill"/><g class="legendlines"><path class="js-line" d="M5,0h30" style="fill: none; stroke: rgb(0, 114, 178); stroke-opacity: 1; stroke-width: 10px;"/></g><g class="legendsymbols"><g class="legendpoints"/></g></g><rect class="legendtoggle" x="0" y="-57.4" width="3207.09375" height="114.8" style="fill: rgb(0, 0, 0); fill-opacity: 0;"/></g><g class="traces" transform="translate(0,885.0999999999999)" style="opacity: 1;"><text class="legendtext" text-anchor="start" x="40" y="33.54" style="font-family: 'Open Sans', verdana, arial, sans-serif; font-size: 86px; fill: rgb(36, 36, 36); fill-opacity: 1; white-space: pre;">20: Deep Learning for Marine Debris Detection</text><g class="layers" style="opacity: 1;"><g class="legendfill"/><g class="legendlines"><path class="js-line" d="M5,0h30" style="fill: none; stroke: rgb(204, 121, 167); stroke-opacity: 1; stroke-width: 10px;"/></g><g class="legendsymbols"><g class="legendpoints"/></g></g><rect class="legendtoggle" x="0" y="-57.4" width="3207.09375" height="114.8" style="fill: rgb(0, 0, 0); fill-opacity: 0;"/></g><g class="traces" transform="translate(0,999.8999999999999)" style="opacity: 1;"><text class="legendtext" text-anchor="start" x="40" y="33.54" style="font-family: 'Open Sans', verdana, arial, sans-serif; font-size: 86px; fill: rgb(36, 36, 36); fill-opacity: 1; white-space: pre;">22: Environmental Impact of Face Masks During the COVID-19 Pandemic</text><g class="layers" style="opacity: 1;"><g class="legendfill"/><g class="legendlines"><path class="js-line" d="M5,0h30" style="fill: none; stroke: rgb(255, 0, 0); stroke-opacity: 1; stroke-width: 10px;"/></g><g class="legendsymbols"><g class="legendpoints"/></g></g><rect class="legendtoggle" x="0" y="-57.4" width="3207.09375" height="114.8" style="fill: rgb(0, 0, 0); fill-opacity: 0;"/></g><g class="traces" transform="translate(0,1114.7)" style="opacity: 1;"><text class="legendtext" text-anchor="start" x="40" y="33.54" style="font-family: 'Open Sans', verdana, arial, sans-serif; font-size: 86px; fill: rgb(36, 36, 36); fill-opacity: 1; white-space: pre;">29: Nanoplastics and Aging Microplastics</text><g class="layers" style="opacity: 1;"><g class="legendfill"/><g class="legendlines"><path class="js-line" d="M5,0h30" style="fill: none; stroke: rgb(0, 255, 0); stroke-opacity: 1; stroke-width: 10px;"/></g><g class="legendsymbols"><g class="legendpoints"/></g></g><rect class="legendtoggle" x="0" y="-57.4" width="3207.09375" height="114.8" style="fill: rgb(0, 0, 0); fill-opacity: 0;"/></g><g class="traces" transform="translate(0,1229.5)" style="opacity: 1;"><text class="legendtext" text-anchor="start" x="40" y="33.54" style="font-family: 'Open Sans', verdana, arial, sans-serif; font-size: 86px; fill: rgb(36, 36, 36); fill-opacity: 1; white-space: pre;">30: Tire and Road Wear Particles in Stormwater</text><g class="layers" style="opacity: 1;"><g class="legendfill"/><g class="legendlines"><path class="js-line" d="M5,0h30" style="fill: none; stroke: rgb(0, 0, 255); stroke-opacity: 1; stroke-width: 10px;"/></g><g class="legendsymbols"><g class="legendpoints"/></g></g><rect class="legendtoggle" x="0" y="-57.4" width="3207.09375" height="114.8" style="fill: rgb(0, 0, 0); fill-opacity: 0;"/></g></g></g><rect class="scrollbar" rx="20" ry="3" width="0" height="0" style="fill: rgb(128, 139, 164); fill-opacity: 1;" x="0" y="0"/></g><g class="g-gtitle"/><g class="g-xtitle"/><g class="g-ytitle"><text class="ytitle" transform="rotate(-90,216.8875,1665.5)" x="216.8875" y="1665.5" text-anchor="middle" style="font-family: 'Open Sans', verdana, arial, sans-serif; font-size: 103px; fill: rgb(36, 36, 36); opacity: 1; white-space: pre;">Number of publications</text></g></g></svg>