<svg class="main-svg" xmlns="http://www.w3.org/2000/svg" xmlns:xlink="http://www.w3.org/1999/xlink" width="5000" height="3400" style="" viewBox="0 0 5000 3400"><rect x="0" y="0" width="5000" height="3400" style="fill: rgb(255, 255, 255); fill-opacity: 1;"/><defs id="defs-ebb466"><g class="clips"><clipPath id="clipebb466xyplot" class="plotclip"><rect width="4580" height="3191"/></clipPath><clipPath class="axesclip" id="clipebb466x"><rect x="400" y="0" width="4580" height="3400"/></clipPath><clipPath class="axesclip" id="clipebb466y"><rect x="0" y="70" width="5000" height="3191"/></clipPath><clipPath class="axesclip" id="clipebb466xy"><rect x="400" y="70" width="4580" height="3191"/></clipPath></g><g class="gradients"/><g class="patterns"/></defs><g class="bglayer"/><g class="layer-below"><g class="imagelayer"/><g class="shapelayer"/></g><g class="cartesianlayer"><g class="subplot xy"><g class="layer-subplot"><g class="shapelayer"/><g class="imagelayer"/></g><g class="minor-gridlayer"><g class="x"/><g class="y"/></g><g class="gridlayer"><g class="x"/><g class="y"/></g><g class="zerolinelayer"/><g class="layer-between"><g class="shapelayer"/><g class="imagelayer"/></g><path class="xlines-below"/><path class="ylines-below"/><g class="overlines-below"/><g class="xaxislayer-below"/><g class="yaxislayer-below"/><g class="overaxes-below"/><g class="plot" transform="translate(400,70)" clip-path="url(#clipebb466xyplot)"><g class="scatterlayer mlayer"><g class="trace scatter trace71945a" style="stroke-miterlimit: 2; opacity: 1;"><g class="fills"/><g class="errorbars"/><g class="lines"><path class="js-line" d="M-8244,3031.45L610.67,3031.45L1221.33,3022.83L1526.67,3005.58L1832,3005.58L2137.33,2945.21L2442.67,2850.34L2748,2772.72L3053.33,2522.61L3358.67,2238.01L3664,1349.71L3969.33,1065.1L4274.67,668.39L4580,159.55L4885.33,1021.98" style="vector-effect: none; fill: none; stroke: rgb(230, 159, 0); stroke-opacity: 1; stroke-width: 10px; opacity: 1;"/></g><g class="points"/><g class="text"/></g><g class="trace scatter trace033c24" style="stroke-miterlimit: 2; opacity: 1;"><g class="fills"/><g class="errorbars"/><g class="lines"><path class="js-line" d="M1221.33,3014.2L1526.67,3014.2L1832,2988.33L2137.33,2979.7L2442.67,2902.09L2748,2893.46L3053.33,2600.23L3358.67,2591.61L3664,2065.53L3969.33,1875.79L4274.67,1711.93L4580,1513.57L4885.33,1944.79" style="vector-effect: none; fill: none; stroke: rgb(86, 180, 233); stroke-opacity: 1; stroke-width: 10px; opacity: 1;"/></g><g class="points"/><g class="text"/></g><g class="trace scatter trace58503f" style="stroke-miterlimit: 2; opacity: 1;"><g class="fills"/><g class="errorbars"/><g class="lines"><path class="js-line" d="M-6412,3031.45L-3664,3031.45L-3358.67,3031.45L305.33,3031.45L916,3014.2L1526.67,3022.83L1832,3014.2L2137.33,2988.33L2442.67,2988.33L2748,2893.46L3053.33,2729.6L3358.67,2608.86L3664,2238.01L3969.33,2074.15L4274.67,1565.31L4580,1651.56L4885.33,2160.39" style="vector-effect: none; fill: none; stroke: rgb(0, 158, 115); stroke-opacity: 1; stroke-width: 10px; opacity: 1;"/></g><g class="points"/><g class="text"/></g><g class="trace scatter trace36dcd5" style="stroke-miterlimit: 2; opacity: 1;"><g class="fills"/><g class="errorbars"/><g class="lines"><path class="js-line" d="M1526.67,3022.83L2137.33,3005.58L2442.67,2936.58L2748,2867.59L3053.33,2703.73L3358.67,2582.99L3664,2177.64L3969.33,2203.51L4274.67,1772.3L4580,1634.31L4885.33,2281.13" style="vector-effect: none; fill: none; stroke: rgb(240, 228, 66); stroke-opacity: 1; stroke-width: 10px; opacity: 1;"/></g><g class="points"/><g class="text"/></g><g class="trace scatter trace2ed4c0" style="stroke-miterlimit: 2; opacity: 1;"><g class="fills"/><g class="errorbars"/><g class="lines"><path class="js-line" d="M305.33,3031.45L916,3031.45L1526.67,3022.83L1832,2979.7L2137.33,3014.2L2442.67,2988.33L2748,2945.21L3053.33,2867.59L3358.67,2712.35L3664,2410.5L3969.33,2298.38L4274.67,1841.29L4580,1720.55L4885.33,1806.8" style="vector-effect: none; fill: none; stroke: rgb(213, 94, 0); stroke-opacity: 1; stroke-width: 10px; opacity: 1;"/></g><g class="points"/><g class="text"/></g><g class="trace scatter trace493085" style="stroke-miterlimit: 2; opacity: 1;"><g class="fills"/><g class="errorbars"/><g class="lines"><path class="js-line" d="M-5496,3031.45L-2748,3022.83L-1832,3031.45L-1526.67,3014.2L-1221.33,3014.2L-916,3031.45L-610.67,3022.83L-305.33,2971.08L0,3031.45L305.33,2996.95L610.67,2988.33L916,2962.46L1221.33,2979.7L1526.67,2884.84L1832,2858.96L2137.33,2858.96L2442.67,2815.84L2748,2755.47L3053.33,2686.48L3358.67,2634.73L3664,2470.87L3969.33,2160.39L4274.67,2194.89L4580,2203.51L4885.33,2600.23" style="vector-effect: none; fill: none; stroke: rgb(0, 114, 178); stroke-opacity: 1; stroke-width: 10px; opacity: 1;"/></g><g class="points"/><g class="text"/></g><g class="trace scatter trace951d35" style="stroke-miterlimit: 2; opacity: 1;"><g class="fills"/><g class="errorbars"/><g class="lines"><path class="js-line" d="M-4274.67,3031.45L-1832,3022.83L-916,3031.45L0,3031.45L305.33,2996.95L610.67,2988.33L916,3005.58L1221.33,2979.7L1526.67,2971.08L1832,2979.7L2137.33,2936.58L2442.67,2927.96L2748,2962.46L3053.33,2910.71L3358.67,2738.22L3664,2591.61L3969.33,2591.61L4274.67,2539.86L4580,2539.86L4885.33,2893.46" style="vector-effect: none; fill: none; stroke: rgb(204, 121, 167); stroke-opacity: 1; stroke-width: 10px; opacity: 1;"/></g><g class="points"/><g class="text"/></g></g></g><g class="overplot"/><path class="xlines-above crisp" d="M399,3261.5H4980" style="fill: none; stroke-width: 1px; stroke: rgb(36, 36, 36); stroke-opacity: 1;"/><path class="ylines-above crisp" d="M399.5,70V3261" style="fill: none; stroke-width: 1px; stroke: rgb(36, 36, 36); stroke-opacity: 1;"/><g class="overlines-above"/><g class="xaxislayer-above"><path class="xtick ticks crisp" d="M0,3262v5" transform="translate(400,0)" style="stroke: rgb(68, 68, 68); stroke-opacity: 1; stroke-width: 1px;"/><path class="xtick ticks crisp" d="M0,3262v5" transform="translate(1010.67,0)" style="stroke: rgb(68, 68, 68); stroke-opacity: 1; stroke-width: 1px;"/><path class="xtick ticks crisp" d="M0,3262v5" transform="translate(1621.33,0)" style="stroke: rgb(68, 68, 68); stroke-opacity: 1; stroke-width: 1px;"/><path class="xtick ticks crisp" d="M0,3262v5" transform="translate(2232,0)" style="stroke: rgb(68, 68, 68); stroke-opacity: 1; stroke-width: 1px;"/><path class="xtick ticks crisp" d="M0,3262v5" transform="translate(2842.67,0)" style="stroke: rgb(68, 68, 68); stroke-opacity: 1; stroke-width: 1px;"/><path class="xtick ticks crisp" d="M0,3262v5" transform="translate(3453.33,0)" style="stroke: rgb(68, 68, 68); stroke-opacity: 1; stroke-width: 1px;"/><path class="xtick ticks crisp" d="M0,3262v5" transform="translate(4064,0)" style="stroke: rgb(68, 68, 68); stroke-opacity: 1; stroke-width: 1px;"/><path class="xtick ticks crisp" d="M0,3262v5" transform="translate(4674.67,0)" style="stroke: rgb(68, 68, 68); stroke-opacity: 1; stroke-width: 1px;"/><g class="xtick"><text text-anchor="middle" x="0" y="3370.2" transform="translate(400,0)" style="font-family: 'Open Sans', verdana, arial, sans-serif; font-size: 86px; fill: rgb(36, 36, 36); fill-opacity: 1; white-space: pre; opacity: 1;">2008</text></g><g class="xtick"><text text-anchor="middle" x="0" y="3370.2" style="font-family: 'Open Sans', verdana, arial, sans-serif; font-size: 86px; fill: rgb(36, 36, 36); fill-opacity: 1; white-space: pre; opacity: 1;" transform="translate(1010.67,0)">2010</text></g><g class="xtick"><text text-anchor="middle" x="0" y="3370.2" style="font-family: 'Open Sans', verdana, arial, sans-serif; font-size: 86px; fill: rgb(36, 36, 36); fill-opacity: 1; white-space: pre; opacity: 1;" transform="translate(1621.33,0)">2012</text></g><g class="xtick"><text text-anchor="middle" x="0" y="3370.2" style="font-family: 'Open Sans', verdana, arial, sans-serif; font-size: 86px; fill: rgb(36, 36, 36); fill-opacity: 1; white-space: pre; opacity: 1;" transform="translate(2232,0)">2014</text></g><g class="xtick"><text text-anchor="middle" x="0" y="3370.2" style="font-family: 'Open Sans', verdana, arial, sans-serif; font-size: 86px; fill: rgb(36, 36, 36); fill-opacity: 1; white-space: pre; opacity: 1;" transform="translate(2842.67,0)">2016</text></g><g class="xtick"><text text-anchor="middle" x="0" y="3370.2" style="font-family: 'Open Sans', verdana, arial, sans-serif; font-size: 86px; fill: rgb(36, 36, 36); fill-opacity: 1; white-space: pre; opacity: 1;" transform="translate(3453.33,0)">2018</text></g><g class="xtick"><text text-anchor="middle" x="0" y="3370.2" style="font-family: 'Open Sans', verdana, arial, sans-serif; font-size: 86px; fill: rgb(36, 36, 36); fill-opacity: 1; white-space: pre; opacity: 1;" transform="translate(4064,0)">2020</text></g><g class="xtick"><text text-anchor="middle" x="0" y="3370.2" style="font-family: 'Open Sans', verdana, arial, sans-serif; font-size: 86px; fill: rgb(36, 36, 36); fill-opacity: 1; white-space: pre; opacity: 1;" transform="translate(4674.67,0)">2022</text></g></g><g class="yaxislayer-above"><path class="ytick ticks crisp" d="M399,0h-5" transform="translate(0,3110.07)" style="stroke: rgb(68, 68, 68); stroke-opacity: 1; stroke-width: 1px;"/><path class="ytick ticks crisp" d="M399,0h-5" transform="translate(0,2678.86)" style="stroke: rgb(68, 68, 68); stroke-opacity: 1; stroke-width: 1px;"/><path class="ytick ticks crisp" d="M399,0h-5" transform="translate(0,2247.64)" style="stroke: rgb(68, 68, 68); stroke-opacity: 1; stroke-width: 1px;"/><path class="ytick ticks crisp" d="M399,0h-5" transform="translate(0,1816.43)" style="stroke: rgb(68, 68, 68); stroke-opacity: 1; stroke-width: 1px;"/><path class="ytick ticks crisp" d="M399,0h-5" transform="translate(0,1385.21)" style="stroke: rgb(68, 68, 68); stroke-opacity: 1; stroke-width: 1px;"/><path class="ytick ticks crisp" d="M399,0h-5" transform="translate(0,953.99)" style="stroke: rgb(68, 68, 68); stroke-opacity: 1; stroke-width: 1px;"/><path class="ytick ticks crisp" d="M399,0h-5" transform="translate(0,522.78)" style="stroke: rgb(68, 68, 68); stroke-opacity: 1; stroke-width: 1px;"/><path class="ytick ticks crisp" d="M399,0h-5" transform="translate(0,91.56)" style="stroke: rgb(68, 68, 68); stroke-opacity: 1; stroke-width: 1px;"/><g class="ytick"><text text-anchor="end" x="376.8" y="30.099999999999998" transform="translate(0,3110.07)" style="font-family: 'Open Sans', verdana, arial, sans-serif; font-size: 86px; fill: rgb(36, 36, 36); fill-opacity: 1; white-space: pre; opacity: 1;">0</text></g><g class="ytick"><text text-anchor="end" x="376.8" y="30.099999999999998" style="font-family: 'Open Sans', verdana, arial, sans-serif; font-size: 86px; fill: rgb(36, 36, 36); fill-opacity: 1; white-space: pre; opacity: 1;" transform="translate(0,2678.86)">50</text></g><g class="ytick"><text text-anchor="end" x="376.8" y="30.099999999999998" style="font-family: 'Open Sans', verdana, arial, sans-serif; font-size: 86px; fill: rgb(36, 36, 36); fill-opacity: 1; white-space: pre; opacity: 1;" transform="translate(0,2247.64)">100</text></g><g class="ytick"><text text-anchor="end" x="376.8" y="30.099999999999998" style="font-family: 'Open Sans', verdana, arial, sans-serif; font-size: 86px; fill: rgb(36, 36, 36); fill-opacity: 1; white-space: pre; opacity: 1;" transform="translate(0,1816.43)">150</text></g><g class="ytick"><text text-anchor="end" x="376.8" y="30.099999999999998" style="font-family: 'Open Sans', verdana, arial, sans-serif; font-size: 86px; fill: rgb(36, 36, 36); fill-opacity: 1; white-space: pre; opacity: 1;" transform="translate(0,1385.21)">200</text></g><g class="ytick"><text text-anchor="end" x="376.8" y="30.099999999999998" style="font-family: 'Open Sans', verdana, arial, sans-serif; font-size: 86px; fill: rgb(36, 36, 36); fill-opacity: 1; white-space: pre; opacity: 1;" transform="translate(0,953.99)">250</text></g><g class="ytick"><text text-anchor="end" x="376.8" y="30.099999999999998" style="font-family: 'Open Sans', verdana, arial, sans-serif; font-size: 86px; fill: rgb(36, 36, 36); fill-opacity: 1; white-space: pre; opacity: 1;" transform="translate(0,522.78)">300</text></g><g class="ytick"><text text-anchor="end" x="376.8" y="30.099999999999998" style="font-family: 'Open Sans', verdana, arial, sans-serif; font-size: 86px; fill: rgb(36, 36, 36); fill-opacity: 1; white-space: pre; opacity: 1;" transform="translate(0,91.56)">350</text></g></g><g class="overaxes-above"/></g></g><g class="polarlayer"/><g class="smithlayer"/><g class="ternarylayer"/><g class="geolayer"/><g class="funnelarealayer"/><g class="pielayer"/><g class="iciclelayer"/><g class="treemaplayer"/><g class="sunburstlayer"/><g class="glimages"/><defs id="topdefs-ebb466"><g class="clips"/><clipPath id="legendebb466"><rect width="3125" height="948" x="0" y="0"/></clipPath></defs><g class="layer-above"><g class="imagelayer"/><g class="shapelayer"/></g><g class="infolayer"><g class="legend" pointer-events="all" transform="translate(445.8,70)"><rect class="bg" shape-rendering="crispEdges" width="3125" height="948" x="0" y="0" style="stroke: rgb(68, 68, 68); stroke-opacity: 1; fill: rgb(255, 255, 255); fill-opacity: 1; stroke-width: 0px;"/><g class="scrollbox" transform="" clip-path="url(#legendebb466)"><text class="legendtitletext" text-anchor="start" x="2" y="133.9" style="font-family: 'Open Sans', verdana, arial, sans-serif; font-size: 103px; fill: rgb(36, 36, 36); fill-opacity: 1; white-space: pre;"><tspan style="font-weight:bold">Topic</tspan></text><g class="groups"><g class="traces" transform="translate(0,196.3)" style="opacity: 1;"><text class="legendtext" text-anchor="start" x="40" y="33.54" style="font-family: 'Open Sans', verdana, arial, sans-serif; font-size: 86px; fill: rgb(36, 36, 36); fill-opacity: 1; white-space: pre;">0: Microplastic Distribution in Freshwater Systems</text><g class="layers" style="opacity: 1;"><g class="legendfill"/><g class="legendlines"><path class="js-line" d="M5,0h30" style="fill: none; stroke: rgb(230, 159, 0); stroke-opacity: 1; stroke-width: 10px;"/></g><g class="legendsymbols"><g class="legendpoints"/></g></g><rect class="legendtoggle" x="0" y="-57.4" width="3119.546875" height="114.8" style="fill: rgb(0, 0, 0); fill-opacity: 0;"/></g><g class="traces" transform="translate(0,311.09999999999997)" style="opacity: 1;"><text class="legendtext" text-anchor="start" x="40" y="33.54" style="font-family: 'Open Sans', verdana, arial, sans-serif; font-size: 86px; fill: rgb(36, 36, 36); fill-opacity: 1; white-space: pre;">1: Toxicity and Effects of Micro- and Nanoplastics on Marine Organisms</text><g class="layers" style="opacity: 1;"><g class="legendfill"/><g class="legendlines"><path class="js-line" d="M5,0h30" style="fill: none; stroke: rgb(86, 180, 233); stroke-opacity: 1; stroke-width: 10px;"/></g><g class="legendsymbols"><g class="legendpoints"/></g></g><rect class="legendtoggle" x="0" y="-57.4" width="3119.546875" height="114.8" style="fill: rgb(0, 0, 0); fill-opacity: 0;"/></g><g class="traces" transform="translate(0,425.9)" style="opacity: 1;"><text class="legendtext" text-anchor="start" x="40" y="33.54" style="font-family: 'Open Sans', verdana, arial, sans-serif; font-size: 86px; fill: rgb(36, 36, 36); fill-opacity: 1; white-space: pre;">2: Global Plastic Waste Management and Pollution</text><g class="layers" style="opacity: 1;"><g class="legendfill"/><g class="legendlines"><path class="js-line" d="M5,0h30" style="fill: none; stroke: rgb(0, 158, 115); stroke-opacity: 1; stroke-width: 10px;"/></g><g class="legendsymbols"><g class="legendpoints"/></g></g><rect class="legendtoggle" x="0" y="-57.4" width="3119.546875" height="114.8" style="fill: rgb(0, 0, 0); fill-opacity: 0;"/></g><g class="traces" transform="translate(0,540.6999999999999)" style="opacity: 1;"><text class="legendtext" text-anchor="start" x="40" y="33.54" style="font-family: 'Open Sans', verdana, arial, sans-serif; font-size: 86px; fill: rgb(36, 36, 36); fill-opacity: 1; white-space: pre;">3: Microplastic Contamination in Commercial Fish Species</text><g class="layers" style="opacity: 1;"><g class="legendfill"/><g class="legendlines"><path class="js-line" d="M5,0h30" style="fill: none; stroke: rgb(240, 228, 66); stroke-opacity: 1; stroke-width: 10px;"/></g><g class="legendsymbols"><g class="legendpoints"/></g></g><rect class="legendtoggle" x="0" y="-57.4" width="3119.546875" height="114.8" style="fill: rgb(0, 0, 0); fill-opacity: 0;"/></g><g class="traces" transform="translate(0,655.5)" style="opacity: 1;"><text class="legendtext" text-anchor="start" x="40" y="33.54" style="font-family: 'Open Sans', verdana, arial, sans-serif; font-size: 86px; fill: rgb(36, 36, 36); fill-opacity: 1; white-space: pre;">4: Microbial Communities on Microplastics</text><g class="layers" style="opacity: 1;"><g class="legendfill"/><g class="legendlines"><path class="js-line" d="M5,0h30" style="fill: none; stroke: rgb(213, 94, 0); stroke-opacity: 1; stroke-width: 10px;"/></g><g class="legendsymbols"><g class="legendpoints"/></g></g><rect class="legendtoggle" x="0" y="-57.4" width="3119.546875" height="114.8" style="fill: rgb(0, 0, 0); fill-opacity: 0;"/></g><g class="traces" transform="translate(0,770.3)" style="opacity: 1;"><text class="legendtext" text-anchor="start" x="40" y="33.54" style="font-family: 'Open Sans', verdana, arial, sans-serif; font-size: 86px; fill: rgb(36, 36, 36); fill-opacity: 1; white-space: pre;">5: Monitoring Marine Litter</text><g class="layers" style="opacity: 1;"><g class="legendfill"/><g class="legendlines"><path class="js-line" d="M5,0h30" style="fill: none; stroke: rgb(0, 114, 178); stroke-opacity: 1; stroke-width: 10px;"/></g><g class="legendsymbols"><g class="legendpoints"/></g></g><rect class="legendtoggle" x="0" y="-57.4" width="3119.546875" height="114.8" style="fill: rgb(0, 0, 0); fill-opacity: 0;"/></g><g class="traces" transform="translate(0,885.0999999999999)" style="opacity: 1;"><text class="legendtext" text-anchor="start" x="40" y="33.54" style="font-family: 'Open Sans', verdana, arial, sans-serif; font-size: 86px; fill: rgb(36, 36, 36); fill-opacity: 1; white-space: pre;">6: Tracking Plastic Debris in the Ocean</text><g class="layers" style="opacity: 1;"><g class="legendfill"/><g class="legendlines"><path class="js-line" d="M5,0h30" style="fill: none; stroke: rgb(204, 121, 167); stroke-opacity: 1; stroke-width: 10px;"/></g><g class="legendsymbols"><g class="legendpoints"/></g></g><rect class="legendtoggle" x="0" y="-57.4" width="3119.546875" height="114.8" style="fill: rgb(0, 0, 0); fill-opacity: 0;"/></g></g></g><rect class="scrollbar" rx="20" ry="3" width="0" height="0" x="0" y="0" style="fill: rgb(128, 139, 164); fill-opacity: 1;"/></g><g class="g-gtitle"/><g class="g-xtitle"/><g class="g-ytitle"><text class="ytitle" transform="rotate(-90,162.215625,1665.5)" x="162.215625" y="1665.5" text-anchor="middle" style="font-family: 'Open Sans', verdana, arial, sans-serif; font-size: 103px; fill: rgb(36, 36, 36); opacity: 1; white-space: pre;">Number of publications</text></g></g></svg>